<svg xmlns="http://www.w3.org/2000/svg" viewBox="0 0 64 64">
  <rect width="64" height="64" rx="14" fill="#326ce5"/>
  <g fill="none" stroke="#fff" stroke-width="3.7" stroke-linecap="round" stroke-linejoin="round">
    <circle cx="32" cy="32" r="15.5"/>
    <circle cx="32" cy="32" r="4.5" fill="#326ce5"/>
    <path d="M32 10.5v12"/>
    <path d="M32 41.5v12"/>
    <path d="M10.5 32h12"/>
    <path d="M41.5 32h12"/>
    <path d="M16.8 16.8l8.5 8.5"/>
    <path d="M38.7 38.7l8.5 8.5"/>
    <path d="M47.2 16.8l-8.5 8.5"/>
    <path d="M25.3 38.7l-8.5 8.5"/>
  </g>
  <g fill="#fff">
    <circle cx="32" cy="10.5" r="2.3"/>
    <circle cx="32" cy="53.5" r="2.3"/>
    <circle cx="10.5" cy="32" r="2.3"/>
    <circle cx="53.5" cy="32" r="2.3"/>
    <circle cx="16.8" cy="16.8" r="2.3"/>
    <circle cx="47.2" cy="47.2" r="2.3"/>
    <circle cx="47.2" cy="16.8" r="2.3"/>
    <circle cx="16.8" cy="47.2" r="2.3"/>
  </g>
</svg>
